<?xml version="1.0" standalone="no"?>
<!DOCTYPE svg PUBLIC "-//W3C//DTD SVG 20010904//EN"
 "http://www.w3.org/TR/2001/REC-SVG-20010904/DTD/svg10.dtd">
<svg version="1.0" xmlns="http://www.w3.org/2000/svg"
 width="225.000000pt" height="225.000000pt" viewBox="0 0 225.000000 225.000000"
 preserveAspectRatio="xMidYMid meet">
<metadata>
Created by potrace 1.10, written by Peter Selinger 2001-2011
</metadata>
<g transform="translate(0.000000,225.000000) scale(0.100000,-0.100000)"
fill="#000000" stroke="none">
<path d="M990 2229 c-289 -33 -574 -197 -752 -433 -421 -558 -225 -1370 403
-1670 555 -266 1216 -39 1480 509 154 319 154 661 0 980 -164 340 -494 572
-874 614 -108 12 -149 12 -257 0z m250 -40 c136 -16 237 -46 355 -104 129 -62
213 -124 310 -226 390 -412 390 -1058 -1 -1468 -428 -451 -1130 -450 -1558 0
-206 216 -310 500 -293 794 16 251 114 484 282 662 104 112 186 173 320 238
192 94 388 129 585 104z"/>
<path d="M977 2069 c-74 -67 -162 -179 -222 -281 -21 -37 -41 -66 -43 -64 -6
6 84 152 132 215 86 112 92 130 52 156 -23 15 -30 14 -103 -10 -136 -46 -294
-145 -382 -240 -48 -52 -51 -78 -13 -118 29 -32 31 -32 -42 -3 -26 10 -31 8
-65 -30 -71 -81 -150 -273 -171 -423 -11 -72 -10 -84 4 -107 10 -14 23 -27 30
-30 9 -4 4 -14 -16 -35 -29 -28 -30 -33 -23 -87 18 -157 115 -400 185 -467
l30 -29 47 17 47 18 -27 -29 c-42 -44 -36 -68 38 -139 154 -147 419 -273 464
-219 20 23 8 52 -59 141 -33 44 -73 107 -90 140 -17 33 -25 51 -18 41 7 -11
40 -60 72 -109 65 -99 169 -215 222 -247 39 -25 65 -16 88 27 13 26 14 26 21
5 3 -13 17 -30 30 -38 23 -15 27 -14 57 4 72 45 225 228 280 335 11 22 22 37
24 34 7 -7 -57 -113 -120 -197 -63 -84 -74 -113 -55 -136 45 -54 310 72 464
219 74 71 80 95 38 139 l-27 29 47 -18 47 -17 31 29 c71 68 163 303 184 473 7
49 5 54 -24 81 l-31 29 25 16 c35 23 39 52 21 148 -30 159 -112 352 -177 413
-26 26 -33 28 -57 18 -70 -28 -69 -28 -39 4 36 39 34 65 -9 112 -86 96 -251
200 -387 246 -73 24 -80 25 -103 10 -40 -26 -34 -46 52 -157 30 -39 54 -72 54
-74 0 -11 -11 1 -50 54 -60 80 -196 212 -219 212 -11 0 -30 -13 -43 -28 l-23
-28 -23 28 c-13 15 -32 28 -41 28 -10 0 -48 -27 -84 -61z m103 -242 l0 -273
-77 8 c-104 11 -283 48 -283 60 0 18 64 135 118 218 53 80 215 260 233 260 5
0 9 -123 9 -273z m191 186 c47 -49 110 -126 141 -173 54 -83 118 -200 118
-218 0 -5 -12 -12 -27 -15 -16 -4 -61 -13 -102 -22 -40 -9 -109 -19 -152 -23
l-79 -8 0 273 c0 150 4 273 9 273 4 0 46 -39 92 -87z m-415 6 c-63 -70 -147
-198 -192 -292 -20 -42 -38 -77 -41 -77 -8 0 -197 99 -217 113 -17 12 -13 18
54 75 75 65 161 127 220 157 44 23 214 84 219 79 2 -2 -17 -27 -43 -55z m709
-22 c62 -31 147 -91 225 -159 67 -57 71 -63 54 -75 -20 -14 -209 -113 -217
-113 -3 0 -21 35 -41 77 -45 93 -129 222 -191 291 -25 27 -45 53 -45 56 0 7
165 -51 215 -77z m-53 -222 c28 -55 8 -32 -26 30 -15 28 -20 41 -11 30 9 -11
26 -38 37 -60z m-1029 -160 c48 -24 92 -45 98 -47 8 -3 2 -39 -15 -108 -15
-58 -29 -147 -33 -197 l-6 -93 -189 0 -188 0 0 28 c0 51 37 207 68 285 17 43
49 109 72 148 l43 69 31 -20 c17 -12 70 -41 119 -65z m1475 18 c72 -120 123
-268 137 -395 l7 -68 -189 0 -190 0 -6 93 c-4 50 -18 139 -33 197 -17 69 -23
105 -15 108 26 9 189 92 216 111 17 12 31 21 31 21 1 0 20 -30 42 -67z m-1266
22 c-3 -24 2 -43 19 -66 l23 -32 -22 5 c-15 4 -32 -2 -52 -19 -28 -23 -30 -24
-30 -5 0 11 -12 34 -26 51 l-26 31 31 0 c23 0 37 9 58 35 15 19 28 35 28 35 1
0 -1 -16 -3 -35z m951 -35 l31 0 -28 -29 c-24 -26 -27 -35 -23 -73 3 -23 3
-34 0 -23 -9 34 -45 65 -75 65 l-29 0 21 30 c17 24 21 39 15 68 l-6 37 31 -37
c24 -29 39 -38 63 -38z m-480 -87 l25 -18 -29 -33 c-29 -33 -29 -33 -29 -168
l0 -136 29 -26 28 -27 -28 -26 -29 -27 0 -139 0 -139 29 -28 28 -27 -31 -32
-31 -32 -30 30 -31 30 28 30 c28 31 28 32 28 169 l0 138 -29 27 -29 27 29 27
29 27 0 135 c0 134 0 135 -29 167 l-28 32 28 24 c16 13 29 31 30 40 0 13 3 11
9 -5 5 -11 20 -29 33 -40z m-383 -27 c52 -13 122 -27 155 -30 33 -4 79 -9 103
-12 l42 -5 0 -145 0 -144 -231 0 -232 0 7 78 c6 70 20 144 47 245 5 20 11 37
12 37 1 0 45 -11 97 -24z m799 -13 c27 -101 41 -175 47 -245 l7 -78 -232 0
-231 0 0 144 0 145 48 5 c140 17 204 28 262 45 89 26 88 26 99 -16z m-959
-353 c17 0 11 -13 -20 -48 l-30 -32 -29 32 -29 32 31 37 31 37 18 -29 c10 -16
22 -29 28 -29z m1113 -18 c-1 -1 -13 -16 -27 -33 l-25 -30 -30 33 -29 33 24
28 c13 16 24 34 24 40 0 6 15 -6 33 -28 17 -22 31 -41 30 -43z m-1201 -143 c4
-52 19 -140 33 -195 15 -58 21 -100 15 -102 -24 -8 -188 -93 -216 -112 l-31
-20 -41 67 c-72 120 -123 268 -137 396 l-7 67 188 -2 189 -3 7 -96z m548 -43
l0 -145 -42 -5 c-24 -3 -70 -8 -103 -12 -33 -3 -103 -17 -155 -30 -52 -13 -97
-21 -101 -16 -18 19 -59 236 -59 310 l0 42 230 0 230 0 0 -144z m550 102 c0
-74 -41 -291 -59 -310 -4 -5 -49 3 -101 16 -52 13 -122 27 -155 30 -33 4 -79
9 -102 12 l-43 5 0 145 0 144 230 0 230 0 0 -42z m465 -25 c-14 -128 -65 -276
-137 -396 l-41 -67 -31 20 c-28 19 -192 104 -216 112 -6 2 0 43 15 102 14 54
28 138 31 185 3 47 7 92 10 99 2 9 49 12 190 12 l186 0 -7 -67z m-1391 -333
c14 0 13 -4 -5 -29 -16 -22 -20 -37 -15 -57 l7 -27 -29 31 c-20 21 -40 32 -58
32 l-27 0 21 23 c14 15 22 36 22 59 l0 36 34 -34 c19 -19 41 -34 50 -34z m924
35 c-1 -24 6 -43 22 -60 l23 -25 -25 0 c-16 0 -39 -12 -58 -32 l-32 -32 6 30
c5 22 2 37 -14 56 l-20 26 24 6 c14 3 35 19 48 35 13 17 24 30 25 30 1 1 2
-15 1 -34z m-548 -290 c0 -225 -2 -275 -14 -275 -21 0 -167 158 -223 241 -28
41 -69 111 -92 156 l-41 82 53 16 c48 14 193 40 277 48 19 2 36 5 38 5 1 1 2
-122 2 -273z m297 246 c34 -7 84 -18 112 -27 l51 -15 -41 -82 c-23 -45 -64
-115 -92 -156 -56 -83 -202 -241 -223 -241 -12 0 -14 49 -14 273 l0 273 73 -7
c39 -4 100 -12 134 -18z m-722 -139 c40 -90 125 -224 188 -296 50 -58 50 -59
22 -52 -72 18 -190 71 -257 115 -94 61 -222 171 -211 182 9 9 215 119 223 119
3 -1 19 -31 35 -68z m1074 18 c150 -77 145 -66 60 -140 -131 -113 -275 -194
-404 -226 -28 -7 -28 -6 22 52 63 72 148 206 188 296 17 37 32 68 33 68 2 0
47 -22 101 -50z"/>
</g>
</svg>
